<mxfile host="app.diagrams.net" modified="2023-02-11T09:34:28.378Z" agent="5.0 (Windows NT 6.1; Win64; x64) AppleWebKit/537.36 (KHTML, like Gecko) Chrome/109.0.0.0 Safari/537.36 Edg/109.0.1518.78" etag="9I9s1Mer3bIKS7M4JGRc" version="20.8.20" type="github">
  <diagram name="第 1 页" id="_EGQEHnWrD0qG6IQZNAH">
    <mxGraphModel dx="1387" dy="834" grid="1" gridSize="10" guides="1" tooltips="1" connect="1" arrows="1" fold="1" page="1" pageScale="1" pageWidth="827" pageHeight="1169" math="0" shadow="0">
      <root>
        <mxCell id="0" />
        <mxCell id="1" parent="0" />
        <mxCell id="NAQyBlbbrNoxs6-n190m-1" value="客户终端" style="rounded=0;whiteSpace=wrap;html=1;align=left;verticalAlign=top;shadow=1;" parent="1" vertex="1">
          <mxGeometry x="60" y="100" width="500" height="120" as="geometry" />
        </mxCell>
        <mxCell id="NAQyBlbbrNoxs6-n190m-2" value="移动端" style="rounded=1;whiteSpace=wrap;html=1;" parent="1" vertex="1">
          <mxGeometry x="110" y="140" width="120" height="60" as="geometry" />
        </mxCell>
        <mxCell id="NAQyBlbbrNoxs6-n190m-3" value="PC端" style="rounded=1;whiteSpace=wrap;html=1;fillColor=#dae8fc;strokeColor=#6c8ebf;" parent="1" vertex="1">
          <mxGeometry x="250" y="140" width="120" height="60" as="geometry" />
        </mxCell>
        <mxCell id="NAQyBlbbrNoxs6-n190m-4" value="第三方机构系统" style="rounded=1;whiteSpace=wrap;html=1;" parent="1" vertex="1">
          <mxGeometry x="390" y="140" width="120" height="60" as="geometry" />
        </mxCell>
        <mxCell id="NAQyBlbbrNoxs6-n190m-5" value="接入层" style="rounded=0;whiteSpace=wrap;html=1;align=left;verticalAlign=top;shadow=1;" parent="1" vertex="1">
          <mxGeometry x="60" y="230" width="680" height="70" as="geometry" />
        </mxCell>
        <mxCell id="NAQyBlbbrNoxs6-n190m-6" value="系统管理人员终端" style="rounded=0;whiteSpace=wrap;html=1;shadow=1;" parent="1" vertex="1">
          <mxGeometry x="568" y="100" width="170" height="120" as="geometry" />
        </mxCell>
        <mxCell id="NAQyBlbbrNoxs6-n190m-7" value="外部开放平台&lt;br&gt;SDK网关" style="rounded=1;whiteSpace=wrap;html=1;" parent="1" vertex="1">
          <mxGeometry x="430" y="235" width="130" height="60" as="geometry" />
        </mxCell>
        <mxCell id="NAQyBlbbrNoxs6-n190m-8" value="开放平台网关" style="rounded=1;whiteSpace=wrap;html=1;fillColor=#dae8fc;strokeColor=#6c8ebf;" parent="1" vertex="1">
          <mxGeometry x="110" y="235" width="300" height="60" as="geometry" />
        </mxCell>
        <mxCell id="NAQyBlbbrNoxs6-n190m-9" value="业务服务层" style="rounded=0;whiteSpace=wrap;html=1;align=left;verticalAlign=top;glass=0;shadow=1;" parent="1" vertex="1">
          <mxGeometry x="60" y="310" width="680" height="280" as="geometry" />
        </mxCell>
        <mxCell id="NAQyBlbbrNoxs6-n190m-10" value="管理控制台网关" style="rounded=1;whiteSpace=wrap;html=1;fillColor=#dae8fc;strokeColor=#6c8ebf;" parent="1" vertex="1">
          <mxGeometry x="573" y="235" width="160" height="60" as="geometry" />
        </mxCell>
        <mxCell id="NAQyBlbbrNoxs6-n190m-11" value="创业综合评估服务" style="rounded=1;whiteSpace=wrap;html=1;fillColor=#dae8fc;strokeColor=#6c8ebf;" parent="1" vertex="1">
          <mxGeometry x="90" y="365" width="120" height="60" as="geometry" />
        </mxCell>
        <mxCell id="NAQyBlbbrNoxs6-n190m-12" value="股权架构服务" style="rounded=1;whiteSpace=wrap;html=1;fillColor=#b0e3e6;strokeColor=#0e8088;" parent="1" vertex="1">
          <mxGeometry x="272" y="434" width="120" height="60" as="geometry" />
        </mxCell>
        <mxCell id="NAQyBlbbrNoxs6-n190m-13" value="创业资源服务" style="rounded=1;whiteSpace=wrap;html=1;fillColor=#b0e3e6;strokeColor=#0e8088;" parent="1" vertex="1">
          <mxGeometry x="412" y="364" width="120" height="60" as="geometry" />
        </mxCell>
        <mxCell id="NAQyBlbbrNoxs6-n190m-14" value="创业人才服务" style="rounded=1;whiteSpace=wrap;html=1;fillColor=#b0e3e6;strokeColor=#0e8088;" parent="1" vertex="1">
          <mxGeometry x="412" y="434" width="120" height="60" as="geometry" />
        </mxCell>
        <mxCell id="NAQyBlbbrNoxs6-n190m-15" value="创业资本服务" style="rounded=1;whiteSpace=wrap;html=1;fillColor=#b0e3e6;strokeColor=#0e8088;" parent="1" vertex="1">
          <mxGeometry x="412" y="504" width="120" height="60" as="geometry" />
        </mxCell>
        <mxCell id="NAQyBlbbrNoxs6-n190m-16" value="商业计划书服务" style="rounded=1;whiteSpace=wrap;html=1;" parent="1" vertex="1">
          <mxGeometry x="90" y="505" width="120" height="60" as="geometry" />
        </mxCell>
        <mxCell id="NAQyBlbbrNoxs6-n190m-17" value="创业合伙人服务" style="rounded=1;whiteSpace=wrap;html=1;fillColor=#b0e3e6;strokeColor=#0e8088;" parent="1" vertex="1">
          <mxGeometry x="272" y="504" width="120" height="60" as="geometry" />
        </mxCell>
        <mxCell id="NAQyBlbbrNoxs6-n190m-18" value="顶层设计服务" style="rounded=1;whiteSpace=wrap;html=1;fillColor=#b0e3e6;strokeColor=#0e8088;" parent="1" vertex="1">
          <mxGeometry x="272" y="364" width="120" height="60" as="geometry" />
        </mxCell>
        <mxCell id="NAQyBlbbrNoxs6-n190m-19" value="创业针对性建议服务" style="rounded=1;whiteSpace=wrap;html=1;" parent="1" vertex="1">
          <mxGeometry x="90" y="435" width="120" height="60" as="geometry" />
        </mxCell>
        <mxCell id="NAQyBlbbrNoxs6-n190m-20" value="创业模型推演服务" style="rounded=1;whiteSpace=wrap;html=1;fillColor=#fad7ac;strokeColor=#b46504;" parent="1" vertex="1">
          <mxGeometry x="592" y="361" width="120" height="60" as="geometry" />
        </mxCell>
        <mxCell id="NAQyBlbbrNoxs6-n190m-23" value="商业分析" style="rounded=0;whiteSpace=wrap;html=1;shadow=1;glass=0;sketch=0;fillColor=none;align=left;verticalAlign=top;" parent="1" vertex="1">
          <mxGeometry x="69" y="340" width="160" height="230" as="geometry" />
        </mxCell>
        <mxCell id="NAQyBlbbrNoxs6-n190m-21" value="落地计划书服务" style="rounded=1;whiteSpace=wrap;html=1;" parent="1" vertex="1">
          <mxGeometry x="592" y="431" width="120" height="60" as="geometry" />
        </mxCell>
        <mxCell id="NAQyBlbbrNoxs6-n190m-22" value="行业信息服务" style="rounded=1;whiteSpace=wrap;html=1;" parent="1" vertex="1">
          <mxGeometry x="592" y="501" width="120" height="60" as="geometry" />
        </mxCell>
        <mxCell id="NAQyBlbbrNoxs6-n190m-24" value="加速器陪跑服务" style="rounded=0;whiteSpace=wrap;html=1;fillColor=none;verticalAlign=top;align=left;shadow=1;" parent="1" vertex="1">
          <mxGeometry x="256" y="340" width="290" height="232" as="geometry" />
        </mxCell>
        <mxCell id="NAQyBlbbrNoxs6-n190m-25" value="商业推演" style="rounded=0;whiteSpace=wrap;html=1;shadow=1;glass=0;sketch=0;fillColor=none;align=left;verticalAlign=top;" parent="1" vertex="1">
          <mxGeometry x="572" y="339" width="160" height="230" as="geometry" />
        </mxCell>
        <mxCell id="NAQyBlbbrNoxs6-n190m-26" value="技术服务层" style="rounded=0;whiteSpace=wrap;html=1;align=left;verticalAlign=top;glass=0;shadow=1;" parent="1" vertex="1">
          <mxGeometry x="60" y="600" width="680" height="410" as="geometry" />
        </mxCell>
        <mxCell id="NAQyBlbbrNoxs6-n190m-27" value="工作台" style="rounded=1;whiteSpace=wrap;html=1;shadow=1;glass=0;sketch=0;fillColor=none;align=center;verticalAlign=top;" parent="1" vertex="1">
          <mxGeometry x="580" y="630" width="130" height="360" as="geometry" />
        </mxCell>
        <mxCell id="NAQyBlbbrNoxs6-n190m-28" value="项目管理" style="rounded=1;whiteSpace=wrap;html=1;shadow=1;glass=0;sketch=0;fillColor=none;" parent="1" vertex="1">
          <mxGeometry x="596" y="660" width="100" height="40" as="geometry" />
        </mxCell>
        <mxCell id="NAQyBlbbrNoxs6-n190m-29" value="任务管理" style="rounded=1;whiteSpace=wrap;html=1;shadow=1;glass=0;sketch=0;fillColor=none;" parent="1" vertex="1">
          <mxGeometry x="596" y="720" width="100" height="40" as="geometry" />
        </mxCell>
        <mxCell id="NAQyBlbbrNoxs6-n190m-30" value="计费管理" style="rounded=1;whiteSpace=wrap;html=1;shadow=1;glass=0;sketch=0;fillColor=none;" parent="1" vertex="1">
          <mxGeometry x="596" y="780" width="100" height="40" as="geometry" />
        </mxCell>
        <mxCell id="NAQyBlbbrNoxs6-n190m-31" value="数据管理" style="rounded=1;whiteSpace=wrap;html=1;shadow=1;glass=0;sketch=0;fillColor=none;align=left;verticalAlign=top;" parent="1" vertex="1">
          <mxGeometry x="70" y="630" width="500" height="110" as="geometry" />
        </mxCell>
        <mxCell id="NAQyBlbbrNoxs6-n190m-32" value="数据接入" style="rounded=1;whiteSpace=wrap;html=1;shadow=1;glass=0;sketch=0;fillColor=none;" parent="1" vertex="1">
          <mxGeometry x="80" y="660" width="120" height="60" as="geometry" />
        </mxCell>
        <mxCell id="NAQyBlbbrNoxs6-n190m-33" value="数据预处理" style="rounded=1;whiteSpace=wrap;html=1;shadow=1;glass=0;sketch=0;fillColor=none;" parent="1" vertex="1">
          <mxGeometry x="215" y="660" width="100" height="60" as="geometry" />
        </mxCell>
        <mxCell id="NAQyBlbbrNoxs6-n190m-34" value="特征工程" style="rounded=1;whiteSpace=wrap;html=1;shadow=1;glass=0;sketch=0;fillColor=none;" parent="1" vertex="1">
          <mxGeometry x="331" y="660" width="99" height="60" as="geometry" />
        </mxCell>
        <mxCell id="NAQyBlbbrNoxs6-n190m-35" value="数据仓库" style="rounded=1;whiteSpace=wrap;html=1;shadow=1;glass=0;sketch=0;fillColor=none;" parent="1" vertex="1">
          <mxGeometry x="450" y="660" width="100" height="60" as="geometry" />
        </mxCell>
        <mxCell id="NAQyBlbbrNoxs6-n190m-36" value="AI管理" style="rounded=1;whiteSpace=wrap;html=1;shadow=1;glass=0;sketch=0;fillColor=none;align=left;verticalAlign=top;" parent="1" vertex="1">
          <mxGeometry x="70" y="750" width="500" height="110" as="geometry" />
        </mxCell>
        <mxCell id="NAQyBlbbrNoxs6-n190m-37" value="知识图谱" style="rounded=1;whiteSpace=wrap;html=1;shadow=1;glass=0;sketch=0;fillColor=none;" parent="1" vertex="1">
          <mxGeometry x="80" y="780" width="120" height="60" as="geometry" />
        </mxCell>
        <mxCell id="NAQyBlbbrNoxs6-n190m-38" value="知识推理" style="rounded=1;whiteSpace=wrap;html=1;shadow=1;glass=0;sketch=0;fillColor=none;" parent="1" vertex="1">
          <mxGeometry x="215" y="780" width="100" height="60" as="geometry" />
        </mxCell>
        <mxCell id="NAQyBlbbrNoxs6-n190m-39" value="机器学习" style="rounded=1;whiteSpace=wrap;html=1;shadow=1;glass=0;sketch=0;fillColor=none;" parent="1" vertex="1">
          <mxGeometry x="331" y="780" width="99" height="60" as="geometry" />
        </mxCell>
        <mxCell id="NAQyBlbbrNoxs6-n190m-40" value="算法自定义" style="rounded=1;whiteSpace=wrap;html=1;shadow=1;glass=0;sketch=0;fillColor=none;" parent="1" vertex="1">
          <mxGeometry x="450" y="780" width="100" height="60" as="geometry" />
        </mxCell>
        <mxCell id="NAQyBlbbrNoxs6-n190m-41" value="平台管理" style="rounded=1;whiteSpace=wrap;html=1;shadow=1;glass=0;sketch=0;fillColor=none;align=left;verticalAlign=top;" parent="1" vertex="1">
          <mxGeometry x="72" y="880" width="500" height="110" as="geometry" />
        </mxCell>
        <mxCell id="NAQyBlbbrNoxs6-n190m-42" value="数据资产管理" style="rounded=1;whiteSpace=wrap;html=1;shadow=1;glass=0;sketch=0;fillColor=none;" parent="1" vertex="1">
          <mxGeometry x="82" y="910" width="120" height="60" as="geometry" />
        </mxCell>
        <mxCell id="NAQyBlbbrNoxs6-n190m-43" value="用户管理" style="rounded=1;whiteSpace=wrap;html=1;shadow=1;glass=0;sketch=0;fillColor=none;" parent="1" vertex="1">
          <mxGeometry x="217" y="910" width="100" height="60" as="geometry" />
        </mxCell>
        <mxCell id="NAQyBlbbrNoxs6-n190m-44" value="模型库管理" style="rounded=1;whiteSpace=wrap;html=1;shadow=1;glass=0;sketch=0;fillColor=none;" parent="1" vertex="1">
          <mxGeometry x="333" y="910" width="99" height="60" as="geometry" />
        </mxCell>
        <mxCell id="NAQyBlbbrNoxs6-n190m-45" value="算法库管理" style="rounded=1;whiteSpace=wrap;html=1;shadow=1;glass=0;sketch=0;fillColor=none;" parent="1" vertex="1">
          <mxGeometry x="452" y="910" width="100" height="60" as="geometry" />
        </mxCell>
        <mxCell id="NAQyBlbbrNoxs6-n190m-46" value="算力池管理" style="rounded=1;whiteSpace=wrap;html=1;shadow=1;glass=0;sketch=0;fillColor=none;" parent="1" vertex="1">
          <mxGeometry x="596" y="840" width="100" height="40" as="geometry" />
        </mxCell>
        <mxCell id="NAQyBlbbrNoxs6-n190m-47" value="系统监控" style="rounded=1;whiteSpace=wrap;html=1;shadow=1;glass=0;sketch=0;fillColor=none;" parent="1" vertex="1">
          <mxGeometry x="596" y="940" width="100" height="40" as="geometry" />
        </mxCell>
        <mxCell id="NAQyBlbbrNoxs6-n190m-48" value="弹性部署" style="rounded=1;whiteSpace=wrap;html=1;shadow=1;glass=0;sketch=0;fillColor=none;" parent="1" vertex="1">
          <mxGeometry x="596" y="890" width="100" height="40" as="geometry" />
        </mxCell>
        <mxCell id="NAQyBlbbrNoxs6-n190m-49" value="基础支撑层" style="rounded=0;whiteSpace=wrap;html=1;align=left;verticalAlign=top;shadow=1;" parent="1" vertex="1">
          <mxGeometry x="61" y="1030" width="679" height="80" as="geometry" />
        </mxCell>
        <mxCell id="NAQyBlbbrNoxs6-n190m-50" value="文件存储集群" style="rounded=1;whiteSpace=wrap;html=1;shadow=1;glass=0;sketch=0;fillColor=none;" parent="1" vertex="1">
          <mxGeometry x="75" y="1060" width="100" height="40" as="geometry" />
        </mxCell>
        <mxCell id="NAQyBlbbrNoxs6-n190m-51" value="数据库集群" style="rounded=1;whiteSpace=wrap;html=1;shadow=1;glass=0;sketch=0;fillColor=none;" parent="1" vertex="1">
          <mxGeometry x="186" y="1060" width="110" height="40" as="geometry" />
        </mxCell>
        <mxCell id="NAQyBlbbrNoxs6-n190m-52" value="弹性计算服务" style="rounded=1;whiteSpace=wrap;html=1;shadow=1;glass=0;sketch=0;fillColor=none;" parent="1" vertex="1">
          <mxGeometry x="310" y="1060" width="96" height="40" as="geometry" />
        </mxCell>
        <mxCell id="NAQyBlbbrNoxs6-n190m-53" value="负载均衡服务" style="rounded=1;whiteSpace=wrap;html=1;shadow=1;glass=0;sketch=0;fillColor=none;" parent="1" vertex="1">
          <mxGeometry x="419" y="1060" width="96" height="40" as="geometry" />
        </mxCell>
        <mxCell id="NAQyBlbbrNoxs6-n190m-54" value="网络安全服务" style="rounded=1;whiteSpace=wrap;html=1;shadow=1;glass=0;sketch=0;fillColor=none;" parent="1" vertex="1">
          <mxGeometry x="628" y="1060" width="96" height="40" as="geometry" />
        </mxCell>
        <mxCell id="NAQyBlbbrNoxs6-n190m-55" value="消息中间件" style="rounded=1;whiteSpace=wrap;html=1;shadow=1;glass=0;sketch=0;fillColor=none;" parent="1" vertex="1">
          <mxGeometry x="523" y="1060" width="96" height="40" as="geometry" />
        </mxCell>
      </root>
    </mxGraphModel>
  </diagram>
</mxfile>
